<svg width="16" height="18" viewBox="0 0 16 18" fill="none" xmlns="http://www.w3.org/2000/svg">
<g id="SVGRepo_iconCarrier">
<path id="Vector" fill-rule="evenodd" clip-rule="evenodd" d="M1 6.75V12.75C1 14.9591 2.74609 16.75 4.9 16.75H10.75C12.9039 16.75 14.65 14.9591 14.65 12.75V6.75C14.65 4.54086 12.9039 2.75 10.75 2.75H4.9C2.74609 2.75 1 4.54086 1 6.75Z" stroke="#414552" stroke-width="1.5" stroke-linecap="round" stroke-linejoin="round"/>
<path id="Vector_2" d="M5.27795 11.9639C5.34491 12.0794 5.42853 12.1667 5.51135 12.2314C5.7334 12.4048 6.04193 12.499 6.36291 12.499C6.68391 12.4989 6.99247 12.4049 7.21447 12.2314L7.2135 12.2305C7.29072 12.1702 7.36866 12.0912 7.43322 11.9873L7.84533 11.9639H7.99475C7.90239 12.2359 7.73576 12.4581 7.52209 12.625C7.19657 12.8793 6.77395 12.9989 6.36291 12.999C5.95182 12.999 5.52841 12.8794 5.20275 12.625C4.98915 12.458 4.82244 12.2359 4.7301 11.9639H5.27795ZM10.9996 12.25H10.4996V8.63379L10.6002 8.5459L10.9752 8.21484L10.9996 8.19434V12.25ZM7.77404 10.4795C7.86344 10.6275 7.93225 10.787 7.98303 10.9531L7.81213 10.9639H7.45764C7.42942 10.8944 7.39651 10.8273 7.359 10.7627L7.45764 10.6514C7.51479 10.6208 7.57134 10.589 7.62658 10.5547L7.65393 10.5859L7.77404 10.4795ZM6.39807 9.52637C6.5494 9.55383 6.69728 9.59685 6.8385 9.6582L6.91858 9.75L6.8385 9.84082C6.69722 9.90223 6.54947 9.94517 6.39807 9.97266L6.37658 9.75L6.39807 9.52637ZM7.81213 8.53613L7.98303 8.5459C7.93231 8.71212 7.86339 8.87149 7.77404 9.01953L7.65393 8.91406L7.62658 8.94434C7.57135 8.91005 7.51478 8.87822 7.45764 8.84766L7.359 8.73633C7.39634 8.67194 7.42953 8.60537 7.45764 8.53613H7.81213ZM6.36291 6.50098C6.77397 6.50106 7.19657 6.62066 7.52209 6.875C7.73576 7.04196 7.90239 7.26407 7.99475 7.53613H7.84533L7.43322 7.51172C7.36873 7.40816 7.29056 7.32874 7.2135 7.26855H7.21447C6.99247 7.09508 6.68391 7.00106 6.36291 7.00098C6.08182 7.00098 5.81046 7.07355 5.59826 7.20801L5.51135 7.26855C5.42853 7.33328 5.34491 7.42058 5.27795 7.53613H4.7301C4.82244 7.26411 4.98916 7.04198 5.20275 6.875C5.5284 6.62057 5.95181 6.50098 6.36291 6.50098ZM10.524 7.25L10.5387 7.26758L10.4996 7.30176V7.25H10.524ZM10.9996 1.25V3.25H10.4996V1.25H10.9996ZM5.15002 1.25V3.25H4.65002V1.25H5.15002Z" fill="black" stroke="#414552"/>
</g>
</svg>
